<svg height="654" width="720" xmlns="http://www.w3.org/2000/svg">
<rect height="654" fill="#555" width="720"></rect>
<text fill="#7f7" font-family="Courier New" font-size="12" xml:space="preserve">
<tspan x="10" y="26">└─┬ node-lambda@0.8.15 </tspan>
<tspan x="10" y="42">  ├── async@0.9.2 </tspan>
<tspan x="10" y="58">  ├─┬ aws-sdk@2.37.0 </tspan>
<tspan x="10" y="74">  │ ├─┬ buffer@4.9.1 </tspan>
<tspan x="10" y="90">  │ │ ├── base64-js@1.2.0 </tspan>
<tspan x="10" y="106">  │ │ ├── ieee754@1.1.8 </tspan>
<tspan x="10" y="122">  │ │ └── isarray@1.0.0 </tspan>
<tspan x="10" y="138">  │ ├── crypto-browserify@1.0.9 </tspan>
<tspan x="10" y="154">  │ ├── jmespath@0.15.0 </tspan>
<tspan x="10" y="170">  │ ├── querystring@0.2.0 </tspan>
<tspan x="10" y="186">  │ ├── sax@1.1.5 </tspan>
<tspan x="10" y="202">  │ ├─┬ url@0.10.3 </tspan>
<tspan x="10" y="218">  │ │ └── punycode@1.3.2 </tspan>
<tspan x="10" y="234">  │ ├── uuid@3.0.0 </tspan>
<tspan x="10" y="250">  │ ├── xml2js@0.4.15 </tspan>
<tspan x="10" y="266">  │ └─┬ xmlbuilder@2.6.2 </tspan>
<tspan x="10" y="282">  │   └── lodash@3.5.0 </tspan>
<tspan x="10" y="298">  ├─┬ commander@2.9.0 </tspan>
<tspan x="10" y="314">  │ └── graceful-readlink@1.0.1 </tspan>
<tspan x="10" y="330">  ├── dotenv@0.4.0 </tspan>
<tspan x="10" y="346">  ├─┬ fs-extra@0.30.0 </tspan>
<tspan x="10" y="362">  │ ├── graceful-fs@4.1.11 </tspan>
<tspan x="10" y="378">  │ ├── jsonfile@2.4.0 </tspan>
<tspan x="10" y="394">  │ ├── klaw@1.3.1 </tspan>
<tspan x="10" y="410">  │ └── path-is-absolute@1.0.1 </tspan>
<tspan x="10" y="426">  ├─┬ node-zip@1.1.1 </tspan>
<tspan x="10" y="442">  │ └─┬ jszip@2.5.0 </tspan>
<tspan x="10" y="458">  │   └── pako@0.2.9 </tspan>
<tspan x="10" y="474">  └─┬ rimraf@2.6.1 </tspan>
<tspan x="10" y="490">    └─┬ glob@7.1.1 </tspan>
<tspan x="10" y="506">      ├── fs.realpath@1.0.0 </tspan>
<tspan x="10" y="522">      ├─┬ inflight@1.0.6 </tspan>
<tspan x="10" y="538">      │ └── wrappy@1.0.2 </tspan>
<tspan x="10" y="554">      ├── inherits@2.0.3 </tspan>
<tspan x="10" y="570">      ├─┬ minimatch@3.0.3 </tspan>
<tspan x="10" y="586">      │ └─┬ brace-expansion@1.1.6 </tspan>
<tspan x="10" y="602">      │   ├── balanced-match@0.4.2 </tspan>
<tspan x="10" y="618">      │   └── concat-map@0.0.1 </tspan>
<tspan x="10" y="634">      └── once@1.4.0</tspan>
</text>
</svg>
